<mxfile host="app.diagrams.net" agent="Mozilla/5.0 (Windows NT 10.0; Win64; x64; rv:141.0) Gecko/20100101 Firefox/141.0" version="28.1.0" pages="2">
  <diagram id="C5RBs43oDa-KdzZeNtuy" name="启动">
    <mxGraphModel dx="2859" dy="791" grid="1" gridSize="10" guides="1" tooltips="1" connect="1" arrows="1" fold="1" page="1" pageScale="1" pageWidth="827" pageHeight="1169" math="0" shadow="0">
      <root>
        <mxCell id="WIyWlLk6GJQsqaUBKTNV-0" />
        <mxCell id="WIyWlLk6GJQsqaUBKTNV-1" parent="WIyWlLk6GJQsqaUBKTNV-0" />
        <mxCell id="FX9B6nP_ePIb87RJZQPp-33" style="edgeStyle=orthogonalEdgeStyle;rounded=0;orthogonalLoop=1;jettySize=auto;html=1;" edge="1" parent="WIyWlLk6GJQsqaUBKTNV-1" source="FX9B6nP_ePIb87RJZQPp-2" target="FX9B6nP_ePIb87RJZQPp-3">
          <mxGeometry relative="1" as="geometry" />
        </mxCell>
        <mxCell id="FX9B6nP_ePIb87RJZQPp-2" value="上电启动" style="strokeWidth=2;html=1;shape=mxgraph.flowchart.terminator;whiteSpace=wrap;" vertex="1" parent="WIyWlLk6GJQsqaUBKTNV-1">
          <mxGeometry x="200" y="110" width="120" height="40" as="geometry" />
        </mxCell>
        <mxCell id="FX9B6nP_ePIb87RJZQPp-32" style="edgeStyle=orthogonalEdgeStyle;rounded=0;orthogonalLoop=1;jettySize=auto;html=1;entryX=0.5;entryY=0;entryDx=0;entryDy=0;" edge="1" parent="WIyWlLk6GJQsqaUBKTNV-1" source="FX9B6nP_ePIb87RJZQPp-3" target="FX9B6nP_ePIb87RJZQPp-4">
          <mxGeometry relative="1" as="geometry" />
        </mxCell>
        <mxCell id="FX9B6nP_ePIb87RJZQPp-3" value="SPL 加载PART分区" style="rounded=0;whiteSpace=wrap;html=1;" vertex="1" parent="WIyWlLk6GJQsqaUBKTNV-1">
          <mxGeometry x="200" y="200" width="120" height="30" as="geometry" />
        </mxCell>
        <mxCell id="FX9B6nP_ePIb87RJZQPp-11" value="" style="edgeStyle=orthogonalEdgeStyle;rounded=0;orthogonalLoop=1;jettySize=auto;html=1;" edge="1" parent="WIyWlLk6GJQsqaUBKTNV-1" source="FX9B6nP_ePIb87RJZQPp-4" target="FX9B6nP_ePIb87RJZQPp-10">
          <mxGeometry relative="1" as="geometry" />
        </mxCell>
        <mxCell id="FX9B6nP_ePIb87RJZQPp-31" style="edgeStyle=orthogonalEdgeStyle;rounded=0;orthogonalLoop=1;jettySize=auto;html=1;exitX=0.5;exitY=1;exitDx=0;exitDy=0;entryX=0.5;entryY=0;entryDx=0;entryDy=0;" edge="1" parent="WIyWlLk6GJQsqaUBKTNV-1" source="FX9B6nP_ePIb87RJZQPp-4" target="FX9B6nP_ePIb87RJZQPp-7">
          <mxGeometry relative="1" as="geometry" />
        </mxCell>
        <mxCell id="FX9B6nP_ePIb87RJZQPp-4" value="CRC校验" style="rhombus;whiteSpace=wrap;html=1;" vertex="1" parent="WIyWlLk6GJQsqaUBKTNV-1">
          <mxGeometry x="170" y="280" width="180" height="50" as="geometry" />
        </mxCell>
        <mxCell id="FX9B6nP_ePIb87RJZQPp-27" style="edgeStyle=orthogonalEdgeStyle;rounded=0;orthogonalLoop=1;jettySize=auto;html=1;entryX=0.5;entryY=0;entryDx=0;entryDy=0;" edge="1" parent="WIyWlLk6GJQsqaUBKTNV-1" source="FX9B6nP_ePIb87RJZQPp-7" target="FX9B6nP_ePIb87RJZQPp-24">
          <mxGeometry relative="1" as="geometry" />
        </mxCell>
        <mxCell id="FX9B6nP_ePIb87RJZQPp-28" value="B优先级高" style="edgeLabel;html=1;align=center;verticalAlign=middle;resizable=0;points=[];" vertex="1" connectable="0" parent="FX9B6nP_ePIb87RJZQPp-27">
          <mxGeometry x="-0.5398" y="-2" relative="1" as="geometry">
            <mxPoint as="offset" />
          </mxGeometry>
        </mxCell>
        <mxCell id="FX9B6nP_ePIb87RJZQPp-29" style="edgeStyle=orthogonalEdgeStyle;rounded=0;orthogonalLoop=1;jettySize=auto;html=1;" edge="1" parent="WIyWlLk6GJQsqaUBKTNV-1" source="FX9B6nP_ePIb87RJZQPp-7" target="FX9B6nP_ePIb87RJZQPp-8">
          <mxGeometry relative="1" as="geometry" />
        </mxCell>
        <mxCell id="FX9B6nP_ePIb87RJZQPp-30" value="A优先级高" style="edgeLabel;html=1;align=center;verticalAlign=middle;resizable=0;points=[];" vertex="1" connectable="0" parent="FX9B6nP_ePIb87RJZQPp-29">
          <mxGeometry x="-0.1679" y="3" relative="1" as="geometry">
            <mxPoint as="offset" />
          </mxGeometry>
        </mxCell>
        <mxCell id="FX9B6nP_ePIb87RJZQPp-7" value="比较SLOT优先级" style="rhombus;whiteSpace=wrap;html=1;" vertex="1" parent="WIyWlLk6GJQsqaUBKTNV-1">
          <mxGeometry x="175" y="380" width="170" height="50" as="geometry" />
        </mxCell>
        <mxCell id="FX9B6nP_ePIb87RJZQPp-14" value="" style="edgeStyle=orthogonalEdgeStyle;rounded=0;orthogonalLoop=1;jettySize=auto;html=1;" edge="1" parent="WIyWlLk6GJQsqaUBKTNV-1" source="FX9B6nP_ePIb87RJZQPp-8" target="FX9B6nP_ePIb87RJZQPp-13">
          <mxGeometry relative="1" as="geometry" />
        </mxCell>
        <mxCell id="FX9B6nP_ePIb87RJZQPp-16" value="&amp;gt;0" style="edgeLabel;html=1;align=center;verticalAlign=middle;resizable=0;points=[];" vertex="1" connectable="0" parent="FX9B6nP_ePIb87RJZQPp-14">
          <mxGeometry x="-0.059" y="2" relative="1" as="geometry">
            <mxPoint as="offset" />
          </mxGeometry>
        </mxCell>
        <mxCell id="FX9B6nP_ePIb87RJZQPp-25" value="" style="edgeStyle=orthogonalEdgeStyle;rounded=0;orthogonalLoop=1;jettySize=auto;html=1;" edge="1" parent="WIyWlLk6GJQsqaUBKTNV-1" source="FX9B6nP_ePIb87RJZQPp-8" target="FX9B6nP_ePIb87RJZQPp-24">
          <mxGeometry relative="1" as="geometry" />
        </mxCell>
        <mxCell id="FX9B6nP_ePIb87RJZQPp-26" value="==0" style="edgeLabel;html=1;align=center;verticalAlign=middle;resizable=0;points=[];" vertex="1" connectable="0" parent="FX9B6nP_ePIb87RJZQPp-25">
          <mxGeometry x="-0.2921" y="2" relative="1" as="geometry">
            <mxPoint as="offset" />
          </mxGeometry>
        </mxCell>
        <mxCell id="FX9B6nP_ePIb87RJZQPp-8" value="A.successful_boot" style="rhombus;whiteSpace=wrap;html=1;" vertex="1" parent="WIyWlLk6GJQsqaUBKTNV-1">
          <mxGeometry x="175" y="510" width="170" height="50" as="geometry" />
        </mxCell>
        <mxCell id="FX9B6nP_ePIb87RJZQPp-44" style="edgeStyle=orthogonalEdgeStyle;rounded=0;orthogonalLoop=1;jettySize=auto;html=1;exitX=0.469;exitY=1.014;exitDx=0;exitDy=0;exitPerimeter=0;" edge="1" parent="WIyWlLk6GJQsqaUBKTNV-1" source="FX9B6nP_ePIb87RJZQPp-10">
          <mxGeometry relative="1" as="geometry">
            <mxPoint x="260" y="380" as="targetPoint" />
          </mxGeometry>
        </mxCell>
        <mxCell id="FX9B6nP_ePIb87RJZQPp-10" value="初始化ABData" style="whiteSpace=wrap;html=1;" vertex="1" parent="WIyWlLk6GJQsqaUBKTNV-1">
          <mxGeometry x="460" y="290" width="120" height="30" as="geometry" />
        </mxCell>
        <mxCell id="FX9B6nP_ePIb87RJZQPp-23" style="edgeStyle=orthogonalEdgeStyle;rounded=0;orthogonalLoop=1;jettySize=auto;html=1;entryX=0.5;entryY=0;entryDx=0;entryDy=0;" edge="1" parent="WIyWlLk6GJQsqaUBKTNV-1" source="FX9B6nP_ePIb87RJZQPp-13" target="FX9B6nP_ePIb87RJZQPp-17">
          <mxGeometry relative="1" as="geometry" />
        </mxCell>
        <mxCell id="FX9B6nP_ePIb87RJZQPp-13" value="启动A" style="whiteSpace=wrap;html=1;" vertex="1" parent="WIyWlLk6GJQsqaUBKTNV-1">
          <mxGeometry x="200" y="630" width="120" height="25" as="geometry" />
        </mxCell>
        <mxCell id="FX9B6nP_ePIb87RJZQPp-19" value="" style="edgeStyle=orthogonalEdgeStyle;rounded=0;orthogonalLoop=1;jettySize=auto;html=1;" edge="1" parent="WIyWlLk6GJQsqaUBKTNV-1" source="FX9B6nP_ePIb87RJZQPp-17" target="FX9B6nP_ePIb87RJZQPp-18">
          <mxGeometry relative="1" as="geometry" />
        </mxCell>
        <mxCell id="FX9B6nP_ePIb87RJZQPp-22" style="edgeStyle=orthogonalEdgeStyle;rounded=0;orthogonalLoop=1;jettySize=auto;html=1;exitX=0.5;exitY=1;exitDx=0;exitDy=0;" edge="1" parent="WIyWlLk6GJQsqaUBKTNV-1" source="FX9B6nP_ePIb87RJZQPp-17" target="FX9B6nP_ePIb87RJZQPp-21">
          <mxGeometry relative="1" as="geometry" />
        </mxCell>
        <mxCell id="FX9B6nP_ePIb87RJZQPp-17" value="启动A成功" style="rhombus;whiteSpace=wrap;html=1;" vertex="1" parent="WIyWlLk6GJQsqaUBKTNV-1">
          <mxGeometry x="175" y="760" width="170" height="50" as="geometry" />
        </mxCell>
        <mxCell id="FX9B6nP_ePIb87RJZQPp-18" value="&lt;div&gt;更新ABData&lt;/div&gt;&lt;div&gt;A.successful_boot=0&lt;/div&gt;" style="whiteSpace=wrap;html=1;" vertex="1" parent="WIyWlLk6GJQsqaUBKTNV-1">
          <mxGeometry x="-70" y="755" width="140" height="60" as="geometry" />
        </mxCell>
        <mxCell id="FX9B6nP_ePIb87RJZQPp-20" style="edgeStyle=orthogonalEdgeStyle;rounded=0;orthogonalLoop=1;jettySize=auto;html=1;entryX=0;entryY=0.5;entryDx=0;entryDy=0;entryPerimeter=0;exitX=0.5;exitY=0;exitDx=0;exitDy=0;" edge="1" parent="WIyWlLk6GJQsqaUBKTNV-1" source="FX9B6nP_ePIb87RJZQPp-18" target="FX9B6nP_ePIb87RJZQPp-2">
          <mxGeometry relative="1" as="geometry" />
        </mxCell>
        <mxCell id="FX9B6nP_ePIb87RJZQPp-21" value="&lt;div&gt;更新ABData&lt;/div&gt;&lt;div&gt;A.successful_boot=1&lt;/div&gt;&lt;div&gt;last_boot=0&lt;/div&gt;" style="whiteSpace=wrap;html=1;" vertex="1" parent="WIyWlLk6GJQsqaUBKTNV-1">
          <mxGeometry x="190" y="890" width="140" height="60" as="geometry" />
        </mxCell>
        <mxCell id="FX9B6nP_ePIb87RJZQPp-40" style="edgeStyle=orthogonalEdgeStyle;rounded=0;orthogonalLoop=1;jettySize=auto;html=1;" edge="1" parent="WIyWlLk6GJQsqaUBKTNV-1" source="FX9B6nP_ePIb87RJZQPp-24" target="FX9B6nP_ePIb87RJZQPp-36">
          <mxGeometry relative="1" as="geometry" />
        </mxCell>
        <mxCell id="FX9B6nP_ePIb87RJZQPp-41" value="&amp;gt;0" style="edgeLabel;html=1;align=center;verticalAlign=middle;resizable=0;points=[];" vertex="1" connectable="0" parent="FX9B6nP_ePIb87RJZQPp-40">
          <mxGeometry x="-0.3333" y="-1" relative="1" as="geometry">
            <mxPoint as="offset" />
          </mxGeometry>
        </mxCell>
        <mxCell id="FX9B6nP_ePIb87RJZQPp-46" style="edgeStyle=orthogonalEdgeStyle;rounded=0;orthogonalLoop=1;jettySize=auto;html=1;" edge="1" parent="WIyWlLk6GJQsqaUBKTNV-1" source="FX9B6nP_ePIb87RJZQPp-24">
          <mxGeometry relative="1" as="geometry">
            <mxPoint x="710" y="630" as="targetPoint" />
          </mxGeometry>
        </mxCell>
        <mxCell id="FX9B6nP_ePIb87RJZQPp-49" value="==0" style="edgeLabel;html=1;align=center;verticalAlign=middle;resizable=0;points=[];" vertex="1" connectable="0" parent="FX9B6nP_ePIb87RJZQPp-46">
          <mxGeometry x="-0.232" y="1" relative="1" as="geometry">
            <mxPoint x="3" as="offset" />
          </mxGeometry>
        </mxCell>
        <mxCell id="FX9B6nP_ePIb87RJZQPp-24" value="B.successful_boot" style="rhombus;whiteSpace=wrap;html=1;" vertex="1" parent="WIyWlLk6GJQsqaUBKTNV-1">
          <mxGeometry x="435" y="510" width="170" height="50" as="geometry" />
        </mxCell>
        <mxCell id="FX9B6nP_ePIb87RJZQPp-35" style="edgeStyle=orthogonalEdgeStyle;rounded=0;orthogonalLoop=1;jettySize=auto;html=1;entryX=0.5;entryY=0;entryDx=0;entryDy=0;" edge="1" source="FX9B6nP_ePIb87RJZQPp-36" target="FX9B6nP_ePIb87RJZQPp-38" parent="WIyWlLk6GJQsqaUBKTNV-1">
          <mxGeometry relative="1" as="geometry" />
        </mxCell>
        <mxCell id="FX9B6nP_ePIb87RJZQPp-36" value="启动B" style="whiteSpace=wrap;html=1;" vertex="1" parent="WIyWlLk6GJQsqaUBKTNV-1">
          <mxGeometry x="460" y="630" width="120" height="25" as="geometry" />
        </mxCell>
        <mxCell id="FX9B6nP_ePIb87RJZQPp-37" style="edgeStyle=orthogonalEdgeStyle;rounded=0;orthogonalLoop=1;jettySize=auto;html=1;exitX=0.5;exitY=1;exitDx=0;exitDy=0;" edge="1" source="FX9B6nP_ePIb87RJZQPp-38" target="FX9B6nP_ePIb87RJZQPp-39" parent="WIyWlLk6GJQsqaUBKTNV-1">
          <mxGeometry relative="1" as="geometry" />
        </mxCell>
        <mxCell id="FX9B6nP_ePIb87RJZQPp-51" style="edgeStyle=orthogonalEdgeStyle;rounded=0;orthogonalLoop=1;jettySize=auto;html=1;" edge="1" parent="WIyWlLk6GJQsqaUBKTNV-1" source="FX9B6nP_ePIb87RJZQPp-38" target="FX9B6nP_ePIb87RJZQPp-50">
          <mxGeometry relative="1" as="geometry" />
        </mxCell>
        <mxCell id="FX9B6nP_ePIb87RJZQPp-38" value="启动B成功" style="rhombus;whiteSpace=wrap;html=1;" vertex="1" parent="WIyWlLk6GJQsqaUBKTNV-1">
          <mxGeometry x="435" y="760" width="170" height="50" as="geometry" />
        </mxCell>
        <mxCell id="FX9B6nP_ePIb87RJZQPp-39" value="&lt;div&gt;更新ABData&lt;/div&gt;&lt;div&gt;B.successful_boot=1&lt;/div&gt;&lt;div&gt;last_boot=1&lt;/div&gt;" style="whiteSpace=wrap;html=1;" vertex="1" parent="WIyWlLk6GJQsqaUBKTNV-1">
          <mxGeometry x="450" y="890" width="140" height="60" as="geometry" />
        </mxCell>
        <mxCell id="FX9B6nP_ePIb87RJZQPp-47" value="启动last_boot" style="whiteSpace=wrap;html=1;" vertex="1" parent="WIyWlLk6GJQsqaUBKTNV-1">
          <mxGeometry x="650" y="630" width="120" height="30" as="geometry" />
        </mxCell>
        <mxCell id="FX9B6nP_ePIb87RJZQPp-50" value="&lt;div&gt;更新ABData&lt;/div&gt;&lt;div&gt;A.successful_boot=0&lt;/div&gt;" style="whiteSpace=wrap;html=1;" vertex="1" parent="WIyWlLk6GJQsqaUBKTNV-1">
          <mxGeometry x="760" y="755" width="140" height="60" as="geometry" />
        </mxCell>
        <mxCell id="FX9B6nP_ePIb87RJZQPp-52" style="edgeStyle=orthogonalEdgeStyle;rounded=0;orthogonalLoop=1;jettySize=auto;html=1;entryX=1;entryY=0.5;entryDx=0;entryDy=0;entryPerimeter=0;" edge="1" parent="WIyWlLk6GJQsqaUBKTNV-1" source="FX9B6nP_ePIb87RJZQPp-50" target="FX9B6nP_ePIb87RJZQPp-2">
          <mxGeometry relative="1" as="geometry">
            <Array as="points">
              <mxPoint x="830" y="130" />
            </Array>
          </mxGeometry>
        </mxCell>
      </root>
    </mxGraphModel>
  </diagram>
  <diagram id="nzsC660t74enrl39dqiD" name="升级">
    <mxGraphModel dx="1683" dy="655" grid="1" gridSize="10" guides="1" tooltips="1" connect="1" arrows="1" fold="1" page="1" pageScale="1" pageWidth="2336" pageHeight="1654" math="0" shadow="0">
      <root>
        <mxCell id="0" />
        <mxCell id="1" parent="0" />
        <mxCell id="EZgp-LsMjfJk3iCzVOiE-13" style="edgeStyle=orthogonalEdgeStyle;rounded=0;orthogonalLoop=1;jettySize=auto;html=1;entryX=0.5;entryY=0;entryDx=0;entryDy=0;" edge="1" parent="1" source="EZgp-LsMjfJk3iCzVOiE-1" target="EZgp-LsMjfJk3iCzVOiE-2">
          <mxGeometry relative="1" as="geometry" />
        </mxCell>
        <mxCell id="EZgp-LsMjfJk3iCzVOiE-1" value="系统运行中" style="strokeWidth=2;html=1;shape=mxgraph.flowchart.terminator;whiteSpace=wrap;" vertex="1" parent="1">
          <mxGeometry x="770" y="170" width="140" height="40" as="geometry" />
        </mxCell>
        <mxCell id="EZgp-LsMjfJk3iCzVOiE-4" value="" style="edgeStyle=orthogonalEdgeStyle;rounded=0;orthogonalLoop=1;jettySize=auto;html=1;" edge="1" parent="1" source="EZgp-LsMjfJk3iCzVOiE-2" target="EZgp-LsMjfJk3iCzVOiE-3">
          <mxGeometry relative="1" as="geometry" />
        </mxCell>
        <mxCell id="EZgp-LsMjfJk3iCzVOiE-2" value="有软件升级？" style="rhombus;whiteSpace=wrap;html=1;" vertex="1" parent="1">
          <mxGeometry x="750" y="284" width="180" height="50" as="geometry" />
        </mxCell>
        <mxCell id="EZgp-LsMjfJk3iCzVOiE-6" value="" style="edgeStyle=orthogonalEdgeStyle;rounded=0;orthogonalLoop=1;jettySize=auto;html=1;" edge="1" parent="1" source="EZgp-LsMjfJk3iCzVOiE-3" target="EZgp-LsMjfJk3iCzVOiE-5">
          <mxGeometry relative="1" as="geometry" />
        </mxCell>
        <mxCell id="EZgp-LsMjfJk3iCzVOiE-3" value="下载软件包" style="whiteSpace=wrap;html=1;" vertex="1" parent="1">
          <mxGeometry x="760" y="408" width="160" height="40" as="geometry" />
        </mxCell>
        <mxCell id="EZgp-LsMjfJk3iCzVOiE-8" value="" style="edgeStyle=orthogonalEdgeStyle;rounded=0;orthogonalLoop=1;jettySize=auto;html=1;" edge="1" parent="1" source="EZgp-LsMjfJk3iCzVOiE-5" target="EZgp-LsMjfJk3iCzVOiE-7">
          <mxGeometry relative="1" as="geometry" />
        </mxCell>
        <mxCell id="EZgp-LsMjfJk3iCzVOiE-17" value="" style="edgeStyle=orthogonalEdgeStyle;rounded=0;orthogonalLoop=1;jettySize=auto;html=1;" edge="1" parent="1" source="EZgp-LsMjfJk3iCzVOiE-5" target="EZgp-LsMjfJk3iCzVOiE-16">
          <mxGeometry relative="1" as="geometry" />
        </mxCell>
        <mxCell id="EZgp-LsMjfJk3iCzVOiE-5" value="校验通过？" style="rhombus;whiteSpace=wrap;html=1;" vertex="1" parent="1">
          <mxGeometry x="760" y="518" width="160" height="60" as="geometry" />
        </mxCell>
        <mxCell id="EZgp-LsMjfJk3iCzVOiE-10" value="" style="edgeStyle=orthogonalEdgeStyle;rounded=0;orthogonalLoop=1;jettySize=auto;html=1;" edge="1" parent="1" source="EZgp-LsMjfJk3iCzVOiE-7" target="EZgp-LsMjfJk3iCzVOiE-9">
          <mxGeometry relative="1" as="geometry" />
        </mxCell>
        <mxCell id="EZgp-LsMjfJk3iCzVOiE-7" value="通过cmdline 获得当前slot：A" style="whiteSpace=wrap;html=1;" vertex="1" parent="1">
          <mxGeometry x="760" y="642" width="160" height="50" as="geometry" />
        </mxCell>
        <mxCell id="EZgp-LsMjfJk3iCzVOiE-12" value="" style="edgeStyle=orthogonalEdgeStyle;rounded=0;orthogonalLoop=1;jettySize=auto;html=1;" edge="1" parent="1" source="EZgp-LsMjfJk3iCzVOiE-9" target="EZgp-LsMjfJk3iCzVOiE-11">
          <mxGeometry relative="1" as="geometry" />
        </mxCell>
        <mxCell id="EZgp-LsMjfJk3iCzVOiE-9" value="更新slot：B" style="whiteSpace=wrap;html=1;" vertex="1" parent="1">
          <mxGeometry x="760" y="766" width="160" height="40" as="geometry" />
        </mxCell>
        <mxCell id="EZgp-LsMjfJk3iCzVOiE-15" value="" style="edgeStyle=orthogonalEdgeStyle;rounded=0;orthogonalLoop=1;jettySize=auto;html=1;" edge="1" parent="1" source="EZgp-LsMjfJk3iCzVOiE-11" target="EZgp-LsMjfJk3iCzVOiE-14">
          <mxGeometry relative="1" as="geometry" />
        </mxCell>
        <mxCell id="EZgp-LsMjfJk3iCzVOiE-11" value="&lt;div&gt;&lt;div&gt;更新ABData&lt;/div&gt;&lt;div&gt;A.priority=14&lt;/div&gt;&lt;div&gt;B.priority=15&lt;/div&gt;&lt;div&gt;B.successful_boot=1&lt;/div&gt;&lt;/div&gt;&lt;div&gt;&lt;br&gt;&lt;/div&gt;" style="whiteSpace=wrap;html=1;" vertex="1" parent="1">
          <mxGeometry x="760" y="860" width="160" height="90" as="geometry" />
        </mxCell>
        <mxCell id="EZgp-LsMjfJk3iCzVOiE-14" value="升级成功" style="strokeWidth=2;html=1;shape=mxgraph.flowchart.terminator;whiteSpace=wrap;" vertex="1" parent="1">
          <mxGeometry x="770" y="1010" width="140" height="40" as="geometry" />
        </mxCell>
        <mxCell id="EZgp-LsMjfJk3iCzVOiE-19" style="edgeStyle=orthogonalEdgeStyle;rounded=0;orthogonalLoop=1;jettySize=auto;html=1;" edge="1" parent="1" source="EZgp-LsMjfJk3iCzVOiE-16" target="EZgp-LsMjfJk3iCzVOiE-18">
          <mxGeometry relative="1" as="geometry" />
        </mxCell>
        <mxCell id="EZgp-LsMjfJk3iCzVOiE-16" value="下载失败" style="whiteSpace=wrap;html=1;" vertex="1" parent="1">
          <mxGeometry x="1048" y="637" width="120" height="53" as="geometry" />
        </mxCell>
        <mxCell id="EZgp-LsMjfJk3iCzVOiE-18" value="升级失败" style="strokeWidth=2;html=1;shape=mxgraph.flowchart.terminator;whiteSpace=wrap;" vertex="1" parent="1">
          <mxGeometry x="1038" y="930" width="140" height="40" as="geometry" />
        </mxCell>
      </root>
    </mxGraphModel>
  </diagram>
</mxfile>
